{
  "accessors": [
    {
      "bufferView": 1,
      "componentType": 5126,
      "count": 10,
      "max": [
        80.83676147460938,
        -10.175735473632813,
        191.81297302246094
      ],
      "min": [
        16.764389038085938,
        -10.475805282592773,
        41.72903060913086
      ],
      "type": "VEC3"
    },
    {
      "bufferView": 1,
      "byteOffset": 120,
      "componentType": 5126,
      "count": 10,
      "max": [
        3.2001312888496614e-07,
        1.0,
        3.3677648048069386e-07
      ],
      "min": [
        -3.2745529665589856e-07,
        -1.0,
        -3.335993312703067e-07
      ],
      "type": "VEC3"
    },
    {
      "bufferView": 0,
      "componentType": 5125,
      "count": 24,
      "type": "SCALAR"
    },
    {
      "bufferView": 1,
      "byteOffset": 240,
      "componentType": 5126,
      "count": 48,
      "max": [
        96.66817474365234,
        -8.568799018859863,
        209.70899963378906
      ],
      "min": [
        0.6707760095596313,
        -10.510415077209473,
        0.10371500253677368
      ],
      "type": "VEC3"
    },
    {
      "bufferView": 1,
      "byteOffset": 816,
      "componentType": 5126,
      "count": 48,
      "max": [
        1.0,
        1.0,
        0.9999999403953552
      ],
      "min": [
        -1.0,
        -1.0,
        -1.0
      ],
      "type": "VEC3"
    },
    {
      "bufferView": 0,
      "byteOffset": 96,
      "componentType": 5125,
      "count": 84,
      "type": "SCALAR"
    },
    {
      "bufferView": 1,
      "byteOffset": 1392,
      "componentType": 5126,
      "count": 68,
      "max": [
        96.6686782836914,
        -0.2644050121307373,
        209.70950317382813
      ],
      "min": [
        0.6702499985694885,
        -1.2677559852600098,
        203.7094268798828
      ],
      "type": "VEC3"
    },
    {
      "bufferView": 1,
      "byteOffset": 2208,
      "componentType": 5126,
      "count": 68,
      "max": [
        1.576252543600276e-05,
        1.0,
        0.999967634677887
      ],
      "min": [
        -0.7071067690849304,
        -1.0,
        -0.9999998807907104
      ],
      "type": "VEC3"
    },
    {
      "bufferView": 0,
      "byteOffset": 432,
      "componentType": 5125,
      "count": 186,
      "type": "SCALAR"
    },
    {
      "bufferView": 1,
      "byteOffset": 3024,
      "componentType": 5126,
      "count": 240,
      "max": [
        93.41558074951172,
        -10.67581844329834,
        182.0
      ],
      "min": [
        91.41558074951172,
        -12.675820350646973,
        36.0
      ],
      "type": "VEC3"
    },
    {
      "bufferView": 1,
      "byteOffset": 5904,
      "componentType": 5126,
      "count": 240,
      "max": [
        0.9975457191467285,
        0.9993965029716492,
        1.0
      ],
      "min": [
        -0.9975457191467285,
        -1.0,
        -1.0
      ],
      "type": "VEC3"
    },
    {
      "bufferView": 0,
      "byteOffset": 1176,
      "componentType": 5125,
      "count": 696,
      "type": "SCALAR"
    },
    {
      "bufferView": 1,
      "byteOffset": 8784,
      "componentType": 5126,
      "count": 635,
      "max": [
        91.39557647705078,
        -8.003588676452637,
        203.75
      ],
      "min": [
        6.895576000213623,
        -13.393952369689941,
        0.2500019967556
      ],
      "type": "VEC3"
    },
    {
      "bufferView": 1,
      "byteOffset": 16404,
      "componentType": 5126,
      "count": 635,
      "max": [
        1.0,
        1.0,
        1.0
      ],
      "min": [
        -1.0,
        -1.0,
        -1.0
      ],
      "type": "VEC3"
    },
    {
      "bufferView": 0,
      "byteOffset": 3960,
      "componentType": 5125,
      "count": 1707,
      "type": "SCALAR"
    },
    {
      "bufferView": 1,
      "byteOffset": 24024,
      "componentType": 5126,
      "count": 129,
      "max": [
        93.44446563720703,
        -0.5890570282936096,
        205.7922821044922
      ],
      "min": [
        4.866675853729248,
        -10.589152336120605,
        -0.0002280000044265762
      ],
      "type": "VEC3"
    },
    {
      "bufferView": 1,
      "byteOffset": 25572,
      "componentType": 5126,
      "count": 129,
      "max": [
        1.0,
        1.0,
        1.0
      ],
      "min": [
        -1.0,
        -1.0,
        -1.0
      ],
      "type": "VEC3"
    },
    {
      "bufferView": 0,
      "byteOffset": 10788,
      "componentType": 5125,
      "count": 255,
      "type": "SCALAR"
    },
    {
      "bufferView": 1,
      "byteOffset": 27120,
      "componentType": 5126,
      "count": 2590,
      "max": [
        25.33734893798828,
        -3.9019219875335693,
        111.70404815673828
      ],
      "min": [
        13.130966186523438,
        -17.29570198059082,
        109.56874084472656
      ],
      "type": "VEC3"
    },
    {
      "bufferView": 1,
      "byteOffset": 58200,
      "componentType": 5126,
      "count": 2590,
      "max": [
        0.9991512298583984,
        0.9999992847442627,
        0.9999860525131226
      ],
      "min": [
        -0.9976247549057007,
        -1.0,
        -0.9999896883964539
      ],
      "type": "VEC3"
    },
    {
      "bufferView": 0,
      "byteOffset": 11808,
      "componentType": 5125,
      "count": 14436,
      "type": "SCALAR"
    },
    {
      "bufferView": 1,
      "byteOffset": 89280,
      "componentType": 5126,
      "count": 178,
      "max": [
        96.66817474365234,
        -0.2674950063228607,
        209.7090301513672
      ],
      "min": [
        0.6707760095596313,
        -1.267583966255188,
        0.10443799942731857
      ],
      "type": "VEC3"
    },
    {
      "bufferView": 1,
      "byteOffset": 91416,
      "componentType": 5126,
      "count": 178,
      "max": [
        0.9999998211860657,
        1.0,
        0.0003322636475786567
      ],
      "min": [
        -0.9998892545700073,
        -1.0,
        -1.0
      ],
      "type": "VEC3"
    },
    {
      "bufferView": 0,
      "byteOffset": 69552,
      "componentType": 5125,
      "count": 474,
      "type": "SCALAR"
    },
    {
      "bufferView": 1,
      "byteOffset": 93552,
      "componentType": 5126,
      "count": 2772,
      "max": [
        15.790976524353027,
        -8.09151840209961,
        116.62577056884766
      ],
      "min": [
        7.3645172119140625,
        -13.113266944885254,
        95.11566925048828
      ],
      "type": "VEC3"
    },
    {
      "bufferView": 1,
      "byteOffset": 126816,
      "componentType": 5126,
      "count": 2772,
      "max": [
        1.0,
        1.0,
        1.0
      ],
      "min": [
        -1.0,
        -1.0,
        -1.0
      ],
      "type": "VEC3"
    },
    {
      "bufferView": 0,
      "byteOffset": 71448,
      "componentType": 5125,
      "count": 8118,
      "type": "SCALAR"
    },
    {
      "bufferView": 1,
      "byteOffset": 160080,
      "componentType": 5126,
      "count": 1125,
      "max": [
        16.304779052734375,
        -8.150518417358398,
        117.71581268310547
      ],
      "min": [
        8.181846618652344,
        -13.054888725280762,
        94.35218811035156
      ],
      "type": "VEC3"
    },
    {
      "bufferView": 1,
      "byteOffset": 173580,
      "componentType": 5126,
      "count": 1125,
      "max": [
        1.0,
        1.0,
        1.0
      ],
      "min": [
        -1.0,
        -1.0,
        -0.9999930262565613
      ],
      "type": "VEC3"
    },
    {
      "bufferView": 0,
      "byteOffset": 103920,
      "componentType": 5125,
      "count": 3099,
      "type": "SCALAR"
    }
  ],
  "asset": {
    "extras": {
      "author": "1-3D.com (https://sketchfab.com/1-3D.com)",
      "license": "CC-BY-SA-4.0 (http://creativecommons.org/licenses/by-sa/4.0/)",
      "source": "https://sketchfab.com/3d-models/glass-door-b79a7bdce92445638160455ec91472ac",
      "title": "Glass door"
    },
    "generator": "Sketchfab-12.73.0",
    "version": "2.0"
  },
  "bufferViews": [
    {
      "buffer": 0,
      "byteLength": 116316,
      "name": "floatBufferViews",
      "target": 34963
    },
    {
      "buffer": 0,
      "byteLength": 187080,
      "byteOffset": 116316,
      "byteStride": 12,
      "name": "floatBufferViews",
      "target": 34962
    }
  ],
  "buffers": [
    {
      "byteLength": 303396,
      "uri": "scene.bin"
    }
  ],
  "materials": [
    {
      "doubleSided": true,
      "name": "Casing_top",
      "pbrMetallicRoughness": {
        "metallicFactor": 0.0,
        "roughnessFactor": 0.6
      }
    },
    {
      "doubleSided": true,
      "name": "Cylinder",
      "pbrMetallicRoughness": {
        "baseColorFactor": [
          0.62745,
          0.44314,
          0.0,
          1.0
        ],
        "metallicFactor": 0.0,
        "roughnessFactor": 0.8706405146372549
      }
    },
    {
      "doubleSided": true,
      "name": "Door",
      "pbrMetallicRoughness": {
        "baseColorFactor": [
          0.80306,
          0.62465,
          0.50769,
          1.0
        ],
        "metallicFactor": 0.0
      }
    },
    {
      "doubleSided": true,
      "name": "Frame",
      "pbrMetallicRoughness": {
        "baseColorFactor": [
          0.94699,
          0.90597,
          0.84604,
          1.0
        ],
        "metallicFactor": 0.0
      }
    },
    {
      "alphaMode": "BLEND",
      "doubleSided": true,
      "name": "Glass",
      "pbrMetallicRoughness": {
        "baseColorFactor": [
          0.75,
          0.78,
          0.8,
          0.6
        ],
        "metallicFactor": 0.0
      }
    },
    {
      "doubleSided": true,
      "name": "Handle",
      "pbrMetallicRoughness": {
        "metallicFactor": 0.0
      }
    },
    {
      "doubleSided": true,
      "name": "InnerCasing",
      "pbrMetallicRoughness": {
        "metallicFactor": 0.0
      }
    },
    {
      "doubleSided": true,
      "name": "OuterCasing",
      "pbrMetallicRoughness": {
        "baseColorFactor": [
          0.94838,
          0.90947,
          0.85077,
          1.0
        ],
        "metallicFactor": 0.0
      }
    },
    {
      "doubleSided": true,
      "name": "Screw",
      "pbrMetallicRoughness": {
        "baseColorFactor": [
          0.67059,
          0.6902,
          0.8,
          1.0
        ],
        "metallicFactor": 0.0
      }
    },
    {
      "doubleSided": true,
      "name": "Shield",
      "pbrMetallicRoughness": {
        "baseColorFactor": [
          0.77647,
          0.77647,
          0.77647,
          1.0
        ],
        "metallicFactor": 0.0
      }
    }
  ],
  "meshes": [
    {
      "name": "Object_0",
      "primitives": [
        {
          "attributes": {
            "NORMAL": 1,
            "POSITION": 0
          },
          "indices": 2,
          "material": 4,
          "mode": 4
        }
      ]
    },
    {
      "name": "Object_1",
      "primitives": [
        {
          "attributes": {
            "NORMAL": 4,
            "POSITION": 3
          },
          "indices": 5,
          "material": 6,
          "mode": 4
        }
      ]
    },
    {
      "name": "Object_2",
      "primitives": [
        {
          "attributes": {
            "NORMAL": 7,
            "POSITION": 6
          },
          "indices": 8,
          "material": 0,
          "mode": 4
        }
      ]
    },
    {
      "name": "Object_3",
      "primitives": [
        {
          "attributes": {
            "NORMAL": 10,
            "POSITION": 9
          },
          "indices": 11,
          "material": 1,
          "mode": 4
        }
      ]
    },
    {
      "name": "Object_4",
      "primitives": [
        {
          "attributes": {
            "NORMAL": 13,
            "POSITION": 12
          },
          "indices": 14,
          "material": 2,
          "mode": 4
        }
      ]
    },
    {
      "name": "Object_5",
      "primitives": [
        {
          "attributes": {
            "NORMAL": 16,
            "POSITION": 15
          },
          "indices": 17,
          "material": 3,
          "mode": 4
        }
      ]
    },
    {
      "name": "Object_6",
      "primitives": [
        {
          "attributes": {
            "NORMAL": 19,
            "POSITION": 18
          },
          "indices": 20,
          "material": 5,
          "mode": 4
        }
      ]
    },
    {
      "name": "Object_7",
      "primitives": [
        {
          "attributes": {
            "NORMAL": 22,
            "POSITION": 21
          },
          "indices": 23,
          "material": 7,
          "mode": 4
        }
      ]
    },
    {
      "name": "Object_8",
      "primitives": [
        {
          "attributes": {
            "NORMAL": 25,
            "POSITION": 24
          },
          "indices": 26,
          "material": 8,
          "mode": 4
        }
      ]
    },
    {
      "name": "Object_9",
      "primitives": [
        {
          "attributes": {
            "NORMAL": 28,
            "POSITION": 27
          },
          "indices": 29,
          "material": 9,
          "mode": 4
        }
      ]
    }
  ],
  "nodes": [
    {
      "children": [
        1
      ],
      "matrix": [
        1.0,
        0.0,
        0.0,
        0.0,
        0.0,
        2.220446049250313e-16,
        -1.0,
        0.0,
        0.0,
        1.0,
        2.220446049250313e-16,
        0.0,
        0.0,
        0.0,
        0.0,
        1.0
      ],
      "name": "Sketchfab_model"
    },
    {
      "children": [
        2,
        3,
        4,
        5,
        6,
        7,
        8,
        9,
        10,
        11
      ],
      "name": "door_glass.obj.cleaner.materialmerger.gles"
    },
    {
      "mesh": 0,
      "name": "Object_2"
    },
    {
      "mesh": 1,
      "name": "Object_3"
    },
    {
      "mesh": 2,
      "name": "Object_4"
    },
    {
      "mesh": 3,
      "name": "Object_5"
    },
    {
      "mesh": 4,
      "name": "Object_6"
    },
    {
      "mesh": 5,
      "name": "Object_7"
    },
    {
      "mesh": 6,
      "name": "Object_8"
    },
    {
      "mesh": 7,
      "name": "Object_9"
    },
    {
      "mesh": 8,
      "name": "Object_10"
    },
    {
      "mesh": 9,
      "name": "Object_11"
    }
  ],
  "scene": 0,
  "scenes": [
    {
      "name": "Sketchfab_Scene",
      "nodes": [
        0
      ]
    }
  ]
}
